<svg id="instagram-svgrepo-com" xmlns="http://www.w3.org/2000/svg" width="19.965" height="19.965" viewBox="0 0 19.965 19.965">
  <path id="Path_1" data-name="Path 1" d="M14.017,0H5.947A5.954,5.954,0,0,0,0,5.948v8.07a5.954,5.954,0,0,0,5.948,5.947h8.07a5.954,5.954,0,0,0,5.947-5.948V5.947A5.954,5.954,0,0,0,14.017,0Zm3.94,14.017a3.94,3.94,0,0,1-3.94,3.94H5.947a3.94,3.94,0,0,1-3.939-3.94V5.947a3.94,3.94,0,0,1,3.94-3.939h8.07a3.94,3.94,0,0,1,3.939,3.94v8.07Z" fill="#fff"/>
  <path id="Path_2" data-name="Path 2" d="M9.982,4.819a5.164,5.164,0,1,0,5.165,5.163A5.17,5.17,0,0,0,9.982,4.819Zm0,8.319a3.155,3.155,0,1,1,3.155-3.155A3.155,3.155,0,0,1,9.982,13.138Z" fill="#fff"/>
  <circle id="Ellipse_1" data-name="Ellipse 1" cx="1.237" cy="1.237" r="1.237" transform="translate(13.919 3.621)" fill="#fff"/>
</svg>
